<svg width="87" height="288" viewBox="0 0 87 288" fill="none" xmlns="http://www.w3.org/2000/svg">
<mask id="mask0_4020_977" style="mask-type:alpha" maskUnits="userSpaceOnUse" x="0" y="0" width="87" height="288">
<path d="M67.3548 57.2984L51.9194 54.2827C57.5323 49.7592 61.7419 42.2199 61.7419 34.6806L63.1452 22.6178C63.1452 10.555 53.3226 0 42.0968 0C30.871 0 21.0484 10.555 21.0484 22.6178L22.4516 34.6806C22.4516 43.7277 28.0645 51.267 33.6774 54.2827L19.6452 55.7906C9.82258 58.8063 1.40323 66.3455 0 78.4084V137.215C0 143.246 1.40323 150.785 4.20968 155.309C7.01613 158.325 8.41935 159.832 11.2258 161.34L19.6452 280.461C19.6452 284.984 22.4516 288 26.6613 288H43.5H60.3387C63.1452 288 67.3548 284.984 67.3548 280.461L75.7742 161.34C78.5806 159.832 81.3871 158.325 82.7903 155.309C85.5968 150.785 87 143.246 87 137.215V78.4084C85.5968 66.3455 78.5807 58.8063 67.3548 57.2984Z" fill="white"/>
</mask>
<g mask="url(#mask0_4020_977)">
<path d="M-5 291L-5 0.5" stroke="url(#paint0_linear_4020_977)" stroke-width="119" stroke-dasharray="1.5 64"/>
<path d="M-20 291L-20 0.5" stroke="url(#paint1_linear_4020_977)" stroke-width="119" stroke-dasharray="1 8"/>
</g>
<defs>
<linearGradient id="paint0_linear_4020_977" x1="-41.5" y1="33" x2="-41.5" y2="291" gradientUnits="userSpaceOnUse">
<stop offset="0.0384615" stop-color="#FD6D3F"/>
<stop offset="1" stop-color="#026666"/>
</linearGradient>
<linearGradient id="paint1_linear_4020_977" x1="-56.5" y1="33" x2="-56.5" y2="291" gradientUnits="userSpaceOnUse">
<stop offset="0.0384615" stop-color="#FD6D3F"/>
<stop offset="1" stop-color="#026666"/>
</linearGradient>
</defs>
</svg>
